<svg width="111" height="126" viewBox="0 0 111 126" fill="none" xmlns="http://www.w3.org/2000/svg">
<circle cx="45" cy="38.9999" r="21.75" fill="white" stroke="black" stroke-width="4.5"/>
<circle cx="66.75" cy="39.7499" r="11.25" fill="black"/>
<path d="M45.0001 58.5C45.0001 92.6454 61.0001 89.1281 69.0001 83.1013" stroke="black" stroke-width="4.5"/>
<line x1="44.2501" y1="58.4928" x2="44.3713" y2="95.9926" stroke="black" stroke-width="4.5"/>
<circle cx="71.9999" cy="81" r="6" fill="black"/>
<circle cx="45" cy="99" r="6" fill="#010101"/>
<path d="M0 0V-1.5H-1.5V0H0ZM111 0H112.5V-1.5H111V0ZM111 126V127.5H112.5V126H111ZM0 126H-1.5V127.5H0V126ZM0 1.5H111V-1.5H0V1.5ZM109.5 0V126H112.5V0H109.5ZM111 124.5H0V127.5H111V124.5ZM1.5 126V0H-1.5V126H1.5Z" fill="black"/>
</svg>
